<svg width="800" height="800" xmlns="http://www.w3.org/2000/svg">
  
  <rect width="100%" height="100%" fill="white" />
  <line x1="700" y1="400" x2="587.047" y2="634.549" stroke="#888" stroke-width="2" />
  <text x="643.523" y="512.275" fill="red" font-size="14" font-family="Arial" text-anchor="middle">$0</text>
  <line x1="700" y1="400" x2="333.244" y2="107.522" stroke="#888" stroke-width="2" />
  <text x="516.622" y="248.761" fill="red" font-size="14" font-family="Arial" text-anchor="middle">$0</text>
  <line x1="587.047" y1="634.549" x2="129.709" y2="530.165" stroke="#888" stroke-width="2" />
  <text x="358.378" y="577.357" fill="red" font-size="14" font-family="Arial" text-anchor="middle">$5</text>
  <line x1="333.244" y1="692.478" x2="129.709" y2="269.835" stroke="#888" stroke-width="2" />
  <text x="231.477" y="476.157" fill="red" font-size="14" font-family="Arial" text-anchor="middle">$6</text>
  <line x1="129.709" y1="530.165" x2="333.244" y2="692.478" stroke="#888" stroke-width="2" />
  <text x="231.477" y="606.322" fill="red" font-size="14" font-family="Arial" text-anchor="middle">$0</text>
  <line x1="129.709" y1="269.835" x2="587.047" y2="165.451" stroke="#888" stroke-width="2" />
  <text x="358.378" y="212.643" fill="red" font-size="14" font-family="Arial" text-anchor="middle">$0</text>
  <line x1="129.709" y1="269.835" x2="587.047" y2="165.451" stroke="#888" stroke-width="2" />
  <text x="358.378" y="212.643" fill="red" font-size="14" font-family="Arial" text-anchor="middle">$0</text>
  <line x1="333.244" y1="107.522" x2="129.709" y2="269.835" stroke="#888" stroke-width="2" />
  <text x="231.477" y="183.678" fill="red" font-size="14" font-family="Arial" text-anchor="middle">$6</text>
  <circle cx="700" cy="400" r="25" fill="#4CAF50" stroke="#388E3C" stroke-width="3" />
  <text x="700" y="405" fill="black" font-size="14" font-weight="bold" font-family="Arial" text-anchor="middle">Casa</text>
  <circle cx="587.047" cy="634.549" r="25" fill="#4CAF50" stroke="#388E3C" stroke-width="3" />
  <text x="587.047" y="639.549" fill="black" font-size="14" font-weight="bold" font-family="Arial" text-anchor="middle">Metro Consulado</text>
  <circle cx="333.244" cy="692.478" r="25" fill="#4CAF50" stroke="#388E3C" stroke-width="3" />
  <text x="333.244" y="697.478" fill="black" font-size="14" font-weight="bold" font-family="Arial" text-anchor="middle">Metro Coyuya</text>
  <circle cx="129.709" cy="530.165" r="25" fill="#4CAF50" stroke="#388E3C" stroke-width="3" />
  <text x="129.709" y="535.165" fill="black" font-size="14" font-weight="bold" font-family="Arial" text-anchor="middle">Metro Santa Anita</text>
  <circle cx="129.709" cy="269.835" r="25" fill="#4CAF50" stroke="#388E3C" stroke-width="3" />
  <text x="129.709" y="274.835" fill="black" font-size="14" font-weight="bold" font-family="Arial" text-anchor="middle">Metrobus Coyuya</text>
  <circle cx="333.244" cy="107.522" r="25" fill="#4CAF50" stroke="#388E3C" stroke-width="3" />
  <text x="333.244" y="112.522" fill="black" font-size="14" font-weight="bold" font-family="Arial" text-anchor="middle">Metrobus Santa Coleta</text>
  <circle cx="587.047" cy="165.451" r="25" fill="#4CAF50" stroke="#388E3C" stroke-width="3" />
  <text x="587.047" y="170.451" fill="black" font-size="14" font-weight="bold" font-family="Arial" text-anchor="middle">Metrobus Upiicsa</text>
</svg>
