<svg width="800" height="800" xmlns="http://www.w3.org/2000/svg">
  <rect width="100%" height="100%" fill="white" />
  <defs>
    <marker id="flecha" viewBox="0 0 10 10" refX="35" refY="5" markerWidth="6" markerHeight="6" orient="auto">
      <path d="M 0 0 L 10 5 L 0 10 z" fill="#888" />
    </marker>
  </defs>
  <line x1="700" y1="400" x2="659.808" y2="250" stroke="#888" stroke-width="2" marker-end="url(#flecha)" />
  <text x="679.904" y="315" fill="red" font-size="14" font-family="Arial" text-anchor="middle">$0</text>
  <line x1="550" y1="659.808" x2="250" y2="140.192" stroke="#888" stroke-width="2" marker-end="url(#flecha)" />
  <text x="400" y="390" fill="red" font-size="14" font-family="Arial" text-anchor="middle">$0</text>
  <line x1="400" y1="700" x2="140.192" y2="550" stroke="#888" stroke-width="2" marker-end="url(#flecha)" />
  <text x="270.096" y="615" fill="red" font-size="14" font-family="Arial" text-anchor="middle">$0</text>
  <line x1="250" y1="659.808" x2="400" y2="700" stroke="#888" stroke-width="2" marker-end="url(#flecha)" />
  <text x="325" y="669.904" fill="red" font-size="14" font-family="Arial" text-anchor="middle">$5</text>
  <line x1="140.192" y1="550" x2="659.808" y2="550" stroke="#888" stroke-width="2" marker-end="url(#flecha)" />
  <text x="400" y="540" fill="red" font-size="14" font-family="Arial" text-anchor="middle">$0</text>
  <line x1="100" y1="400" x2="140.192" y2="250" stroke="#888" stroke-width="2" marker-end="url(#flecha)" />
  <text x="120.096" y="315" fill="red" font-size="14" font-family="Arial" text-anchor="middle">$5</text>
  <line x1="140.192" y1="250" x2="550" y2="140.192" stroke="#888" stroke-width="2" marker-end="url(#flecha)" />
  <text x="345.096" y="185.096" fill="red" font-size="14" font-family="Arial" text-anchor="middle">$0</text>
  <line x1="250" y1="140.192" x2="400" y2="100" stroke="#888" stroke-width="2" marker-end="url(#flecha)" />
  <text x="325" y="110.096" fill="red" font-size="14" font-family="Arial" text-anchor="middle">$6</text>
  <line x1="550" y1="140.192" x2="400" y2="100" stroke="#888" stroke-width="2" marker-end="url(#flecha)" />
  <text x="475" y="110.096" fill="red" font-size="14" font-family="Arial" text-anchor="middle">$6</text>
  <line x1="659.808" y1="250" x2="250" y2="659.808" stroke="#888" stroke-width="2" marker-end="url(#flecha)" />
  <text x="454.904" y="444.904" fill="red" font-size="14" font-family="Arial" text-anchor="middle">$7.5</text>
  <line x1="659.808" y1="250" x2="100" y2="400" stroke="#888" stroke-width="2" marker-end="url(#flecha)" />
  <text x="379.904" y="315" fill="red" font-size="14" font-family="Arial" text-anchor="middle">$7.5</text>
  <circle cx="700" cy="400" r="25" fill="#2196F3" stroke="#1976D2" stroke-width="3" />
  <text x="700" y="405" fill="black" font-size="14" font-weight="bold" font-family="Arial" text-anchor="middle">Casa</text>
  <circle cx="659.808" cy="550" r="25" fill="#2196F3" stroke="#1976D2" stroke-width="3" />
  <text x="659.808" y="555" fill="black" font-size="14" font-weight="bold" font-family="Arial" text-anchor="middle">Metro Coyuya</text>
  <circle cx="550" cy="659.808" r="25" fill="#2196F3" stroke="#1976D2" stroke-width="3" />
  <text x="550" y="664.808" fill="black" font-size="14" font-weight="bold" font-family="Arial" text-anchor="middle">Metro Coyuya </text>
  <circle cx="400" cy="700" r="25" fill="#2196F3" stroke="#1976D2" stroke-width="3" />
  <text x="400" y="705" fill="black" font-size="14" font-weight="bold" font-family="Arial" text-anchor="middle">Metro Martin Carrera</text>
  <circle cx="250" cy="659.808" r="25" fill="#2196F3" stroke="#1976D2" stroke-width="3" />
  <text x="250" y="664.808" fill="black" font-size="14" font-weight="bold" font-family="Arial" text-anchor="middle">Metro Rosario</text>
  <circle cx="140.192" cy="550" r="25" fill="#2196F3" stroke="#1976D2" stroke-width="3" />
  <text x="140.192" y="555" fill="black" font-size="14" font-weight="bold" font-family="Arial" text-anchor="middle">Metro Santa Anita</text>
  <circle cx="100" cy="400" r="25" fill="#2196F3" stroke="#1976D2" stroke-width="3" />
  <text x="100" y="405" fill="black" font-size="14" font-weight="bold" font-family="Arial" text-anchor="middle">Metro Tacuba</text>
  <circle cx="140.192" cy="250" r="25" fill="#2196F3" stroke="#1976D2" stroke-width="3" />
  <text x="140.192" y="255" fill="black" font-size="14" font-weight="bold" font-family="Arial" text-anchor="middle">Metro Xola</text>
  <circle cx="250" cy="140.192" r="25" fill="#2196F3" stroke="#1976D2" stroke-width="3" />
  <text x="250" y="145.192" fill="black" font-size="14" font-weight="bold" font-family="Arial" text-anchor="middle">Metrobus Coyuya</text>
  <circle cx="400" cy="100" r="25" fill="#2196F3" stroke="#1976D2" stroke-width="3" />
  <text x="400" y="105" fill="black" font-size="14" font-weight="bold" font-family="Arial" text-anchor="middle">Metrobus Upiicsa</text>
  <circle cx="550" cy="140.192" r="25" fill="#2196F3" stroke="#1976D2" stroke-width="3" />
  <text x="550" y="145.192" fill="black" font-size="14" font-weight="bold" font-family="Arial" text-anchor="middle">Metrobus Xola</text>
  <circle cx="659.808" cy="250" r="25" fill="#2196F3" stroke="#1976D2" stroke-width="3" />
  <text x="659.808" y="255" fill="black" font-size="14" font-weight="bold" font-family="Arial" text-anchor="middle">Parada</text>
</svg>
