<svg width="1000" height="800" xmlns="http://www.w3.org/2000/svg">
  <rect width="100%" height="100%" fill="#f4f4f9" />
  <defs>
    <marker id="flecha" viewBox="0 0 10 10" refX="35" refY="5" markerWidth="6" markerHeight="6" orient="auto">
      <path d="M 0 0 L 10 5 L 0 10 z" fill="#555" />
    </marker>
  </defs>
  <line x1="500" y1="100" x2="500" y2="250" stroke="#555" stroke-width="2" marker-end="url(#flecha)" />
  <text x="500" y="170" fill="#e91e63" font-size="12" font-family="Arial" text-anchor="middle">$0</text>
  <line x1="500" y1="250" x2="250" y2="400" stroke="#555" stroke-width="2" marker-end="url(#flecha)" />
  <text x="375" y="320" fill="#e91e63" font-size="12" font-family="Arial" text-anchor="middle">$0</text>
  <line x1="500" y1="250" x2="500" y2="400" stroke="#555" stroke-width="2" marker-end="url(#flecha)" />
  <text x="500" y="320" fill="#e91e63" font-size="12" font-family="Arial" text-anchor="middle">$0</text>
  <line x1="500" y1="250" x2="750" y2="400" stroke="#555" stroke-width="2" marker-end="url(#flecha)" />
  <text x="625" y="320" fill="#e91e63" font-size="12" font-family="Arial" text-anchor="middle">$0</text>
  <line x1="500" y1="400" x2="333.333" y2="550" stroke="#555" stroke-width="2" marker-end="url(#flecha)" />
  <text x="416.667" y="470" fill="#e91e63" font-size="12" font-family="Arial" text-anchor="middle">$1500</text>
  <line x1="750" y1="400" x2="666.667" y2="550" stroke="#555" stroke-width="2" marker-end="url(#flecha)" />
  <text x="708.333" y="470" fill="#e91e63" font-size="12" font-family="Arial" text-anchor="middle">$2500</text>
  <line x1="0" y1="0" x2="0" y2="0" stroke="#555" stroke-width="2" marker-end="url(#flecha)" />
  <text x="0" y="-5" fill="#e91e63" font-size="12" font-family="Arial" text-anchor="middle">$5000</text>
  <circle cx="0" cy="0" r="25" fill="#4CAF50" stroke="#333" stroke-width="2" />
  <text x="0" y="5" fill="black" font-size="14" font-weight="bold" font-family="Arial" text-anchor="middle">Asus RTX 3060 Ti</text>
  <circle cx="500" cy="100" r="25" fill="#FF9800" stroke="#333" stroke-width="2" />
  <text x="500" y="105" fill="black" font-size="14" font-weight="bold" font-family="Arial" text-anchor="middle">Catalogo de tienda</text>
  <circle cx="500" cy="250" r="25" fill="#4CAF50" stroke="#333" stroke-width="2" />
  <text x="500" y="255" fill="black" font-size="14" font-weight="bold" font-family="Arial" text-anchor="middle">Componentes de PC</text>
  <circle cx="500" cy="400" r="25" fill="#4CAF50" stroke="#333" stroke-width="2" />
  <text x="500" y="405" fill="black" font-size="14" font-weight="bold" font-family="Arial" text-anchor="middle">Fuentes de poder</text>
  <circle cx="750" cy="400" r="25" fill="#4CAF50" stroke="#333" stroke-width="2" />
  <text x="750" y="405" fill="black" font-size="14" font-weight="bold" font-family="Arial" text-anchor="middle">Procesadores</text>
  <circle cx="666.667" cy="550" r="25" fill="#4CAF50" stroke="#333" stroke-width="2" />
  <text x="666.667" y="555" fill="black" font-size="14" font-weight="bold" font-family="Arial" text-anchor="middle">Ryzen 5 4500</text>
  <circle cx="0" cy="0" r="25" fill="#4CAF50" stroke="#333" stroke-width="2" />
  <text x="0" y="5" fill="black" font-size="14" font-weight="bold" font-family="Arial" text-anchor="middle">Tarjetas de video</text>
  <circle cx="250" cy="400" r="25" fill="#4CAF50" stroke="#333" stroke-width="2" />
  <text x="250" y="405" fill="black" font-size="14" font-weight="bold" font-family="Arial" text-anchor="middle">Tarjetas de video </text>
  <circle cx="333.333" cy="550" r="25" fill="#4CAF50" stroke="#333" stroke-width="2" />
  <text x="333.333" y="555" fill="black" font-size="14" font-weight="bold" font-family="Arial" text-anchor="middle">XPG 700W 80+ Bronze</text>
</svg>
